<?xml version="1.0" encoding="UTF-8"?>
<svg id="Layer_1" xmlns="http://www.w3.org/2000/svg" viewBox="0 0 900 990">
  <defs>
    <style>
      .cls-1 {
        fill: none;
      }

      .cls-2 {
        fill: #4a5568;
      }
    </style>
  </defs>
  <line class="cls-1" x1="250" y1="295" x2="400" y2="324.8476"/>
  <line class="cls-1" x1="550" y1="295" x2="400" y2="324.8476"/>
 
    <path class="cls-2" d="M0,540v360c0,49.7056,40.2944,90,90,90h360c0-248.5281-201.4719-450-450-450Z"/>
    <path class="cls-2" d="M450,990h360c49.7056,0,90-40.2944,90-90v-360c-248.5281,0-450,201.4719-450,450Z"/>
    <path class="cls-2" d="M450,89.5428L0,0v540c248.5201,0,450-201.4801,450-450,0,248.5281,201.4719,450,450,450V0l-450,89.5428Z"/>
 
</svg>