<svg id="eTB19c3Dndv1" xmlns="http://www.w3.org/2000/svg" xmlns:xlink="http://www.w3.org/1999/xlink" viewBox="0 0 300 300" shape-rendering="geometricPrecision" text-rendering="geometricPrecision" project-id="6b43830a39c74cc39d5b19153869a8a5" export-id="65a0134ece0e498999d8bea705cffd00" cached="false">
<defs>
<linearGradient id="eTB19c3Dndv5-fill" x1="8.7868" y1="321.2132" x2="325.1695" y2="4.8305" spreadMethod="pad" gradientUnits="userSpaceOnUse" gradientTransform="translate(0 0)"><stop id="eTB19c3Dndv5-fill-0" offset="0%" stop-color="#486cff"/>
<stop id="eTB19c3Dndv5-fill-1" offset="100%" stop-color="#05a6ff"/></linearGradient></defs><line x1="0" y1="0" x2="150" y2="29.8476" fill="none"/>
<line x1="300" y1="0" x2="150" y2="29.8476" fill="none"/><path d="M150,294.56691h-120c-16.5685,0-30-13.4315-30-30L0,23.98642c.00711.00133.01421.00266.02132.00398C0.56762,10.66654,11.54195,0.03246,25,0.03246c1.83337,0,3.62065.19735,5.34175.57197L144.26601,23.27354c1.84126.4321,3.76093.66067,5.73399.66067s3.89273-.22857,5.73399-.66067L268.79261,0.77668C270.7774,0.26958,272.85722,0,275,0c13.80712,0,25,11.19288,25,25c0,.04825-.00014.09646-.00041.14465.00014-.00003.00027-.00005.00041-.00008v239.42234c0,16.5685-13.4315,30-30,30h-120c0-1.83344,0-3.64446.00027-5.43335L150,289.13382l-.00027-.00004C150,290.9226,150,292.73355,150,294.56691ZM90,110L75.85786,135.85786L50,150l25.85786,14.14214L90,190l14.14214-25.85786L130,150l-25.85786-14.14214L90,110Zm120,0l-14.14214,25.85786L170,150l25.85786,14.14214L210,190l14.14214-25.85786L250,150l-25.85786-14.14214L210,110Z" fill="url(#eTB19c3Dndv5-fill)"/>
</svg>
