<?xml version="1.0" encoding="UTF-8"?>
<svg id="Layer_1" xmlns="http://www.w3.org/2000/svg" xmlns:xlink="http://www.w3.org/1999/xlink" viewBox="0 0 300 330">
  <defs>
    <style>
      .cls-1 {
        fill: none;
      }

      .cls-2 {
        fill: url(#linear-gradient-3);
      }

      .cls-3 {
        fill: url(#linear-gradient-2);
      }

      .cls-4 {
        fill: url(#linear-gradient);
      }
    </style>
    <linearGradient id="linear-gradient" x1="8.7868" y1="321.2132" x2="325.1695" y2="4.8305" gradientUnits="userSpaceOnUse">
      <stop offset="0" stop-color="#00cfff"/>
      <stop offset="1" stop-color="#0566ff"/>
    </linearGradient>
    <linearGradient id="linear-gradient-2" x1="127.4541" y1="387.6931" x2="456.0075" y2="59.1397" gradientUnits="userSpaceOnUse">
      <stop offset=".0291" stop-color="#00cfff"/>
      <stop offset="1" stop-color="#0566ff"/>
    </linearGradient>
    <linearGradient id="linear-gradient-3" x1="3.9471" y1="236.0529" x2="297.3791" y2="-57.3791" gradientUnits="userSpaceOnUse">
      <stop offset="0" stop-color="#00cfff"/>
      <stop offset="1" stop-color="#0566ff"/>
    </linearGradient>
  </defs>
  <line class="cls-1" x2="150" y2="29.8476"/>
  <line class="cls-1" x1="300" x2="150" y2="29.8476"/>
  <g>
    <path class="cls-4" d="M0,180v120c0,16.5685,13.4315,30,30,30h120c0-82.8427-67.1573-150-150-150Z"/>
    <path class="cls-3" d="M150,330h120c16.5685,0,30-13.4315,30-30v-120c-82.8427,0-150,67.1573-150,150Z"/>
    <path class="cls-2" d="M150,29.8476L0,0v180c82.84,0,150-67.16,150-150,0,82.8427,67.1573,150,150,150V0l-150,29.8476Z"/>
  </g>
</svg>