<svg width="65" height="65" viewBox="0 0 65 65" fill="none" xmlns="http://www.w3.org/2000/svg">
<path d="M14.3315 34.1235L34.5746 13.902C35.9421 12.5417 37.7926 11.7781 39.7215 11.7781C41.6504 11.7781 43.5009 12.5417 44.8685 13.902L46.4417 15.4752L49.5952 12.3216L48.022 10.7413C45.8161 8.54006 42.8271 7.30383 39.7108 7.30383C36.5944 7.30383 33.6054 8.54006 31.3995 10.7413L11.1708 30.9699L14.3315 34.1235Z" fill='black'/>
<path d="M41.3558 20.5611L38.2022 17.4075L17.952 37.6577C16.5841 39.0247 14.7292 39.7923 12.7953 39.7916C10.8615 39.7909 9.00709 39.022 7.64013 37.6541C6.27317 36.2862 5.50559 34.4313 5.50627 32.4974C5.50694 30.5636 6.27581 28.7092 7.64372 27.3423L25.1139 9.87205L21.9604 6.71851L4.49018 24.1887C3.37802 25.2751 2.49247 26.5713 1.88482 28.0024C1.27717 29.4334 0.959507 30.9708 0.950222 32.5254C0.940936 34.0801 1.24022 35.6212 1.83073 37.0594C2.42124 38.4976 3.29124 39.8043 4.39034 40.9039C5.48945 42.0035 6.7958 42.874 8.23374 43.4651C9.67167 44.0563 11.2126 44.3562 12.7673 44.3476C14.322 44.339 15.8595 44.022 17.2908 43.415C18.7221 42.8079 20.0187 41.923 21.1055 40.8113L41.3558 20.5611ZM61.5126 24.1887C59.3057 21.9893 56.317 20.7542 53.2013 20.7542C50.0856 20.7542 47.0969 21.9893 44.89 24.1887L24.6398 44.4389L27.7934 47.5925L48.0436 27.3423C49.0637 26.3242 50.3626 25.6313 51.7762 25.351C53.1899 25.0708 54.655 25.2157 55.9863 25.7676C57.3176 26.3195 58.4555 27.2536 59.2563 28.4519C60.057 29.6501 60.4847 31.0588 60.4853 32.5C60.489 33.4601 60.3002 34.4112 59.9301 35.2971C59.5599 36.183 59.016 36.9857 58.3303 37.6577L40.8816 55.1279L44.0424 58.2815L61.5126 40.8113C63.7138 38.6053 64.95 35.6163 64.95 32.5C64.95 29.3837 63.7138 26.3946 61.5126 24.1887Z" fill='black'/>
<path d="M51.6712 30.8766L31.421 51.1196C30.0516 52.4847 28.1969 53.2512 26.2633 53.2512C24.3297 53.2512 22.475 52.4847 21.1056 51.1196L19.5324 49.5392L16.3788 52.6928L17.952 54.2731C20.1589 56.4726 23.1476 57.7076 26.2633 57.7076C29.379 57.7076 32.3677 56.4726 34.5746 54.2731L54.8248 34.0157L51.6712 30.8766Z" fill='black'/>
</svg>
